<svg xmlns="http://www.w3.org/2000/svg"
  xmlns:xlink="http://www.w3.org/1999/xlink" width="51" height="51"
  viewBox="0 -6.5 51 51">
  <path fill="#FEFEFE"
    d="M24.8737 5.85777C32.1158 5.57171 38.2191 11.2213 38.509 18.4792C38.7989 25.7372 33.1656 31.8576 25.9239 32.1526C18.676 32.4478 12.5626 26.796 12.2725 19.5317C11.9824 12.2675 17.6254 6.14408 24.8737 5.85777Z" />
  <path fill="#2B62CD"
    d="M25.9925 12.773L25.9938 12.773L26.0185 12.7733C26.2196 12.7755 26.4125 12.7776 26.5842 12.7774C26.7203 12.7773 26.8703 12.7759 27.0278 12.7745L27.0297 12.7745C27.5878 12.7695 28.2395 12.7637 28.7011 12.8083C29.5951 12.8976 30.4432 13.2483 31.1399 13.8167C31.6039 14.1932 31.9395 14.5946 32.2394 15.1099C32.5714 15.6774 32.7789 16.3093 32.8477 16.9635C32.8881 17.3491 32.8817 17.7387 32.8753 18.1257L32.8753 18.1294C32.8594 19.0774 32.8438 20.0093 33.5147 20.828L33.0235 21.3289C31.6621 20.8771 30.8043 20.4259 29.848 19.3366C29.7363 19.4121 29.632 19.498 29.5364 19.5933C28.5603 20.5719 28.5191 21.5928 28.5193 22.8429L28.5211 24.3866L29.3957 24.3885C29.3977 24.1394 29.391 23.8802 29.3841 23.6162C29.3561 22.5359 29.3261 21.3761 29.8828 20.5057C30.1003 20.6575 30.3205 20.8219 30.5357 20.9783C30.1816 21.6418 30.2055 22.3431 30.2299 23.0612L30.23 23.0616L30.23 23.0622C30.2393 23.3385 30.2488 23.6174 30.2368 23.8975C30.235 23.9399 30.2339 23.9859 30.2327 24.0344C30.2229 24.4484 30.2085 25.0431 29.7145 25.1543C29.2716 25.254 28.421 25.2942 27.9915 25.11C27.669 24.9502 27.6873 24.2967 27.7004 23.8307C27.7042 23.6959 27.7075 23.5768 27.702 23.4899C27.7011 23.3707 27.6994 23.2519 27.6978 23.1335C27.6814 21.9754 27.6658 20.8593 28.3233 19.83C28.789 19.1007 29.2491 18.5642 30.1275 18.3419C30.7912 19.2542 31.2039 19.6189 32.2219 20.1397C32.0466 19.4522 32.0221 18.7301 32.0456 18.0238C32.0726 17.2163 32.0233 16.6819 31.7346 15.9218C31.5898 15.5943 31.4022 15.2876 31.1768 15.0097C30.5345 14.2259 29.6081 13.7297 28.601 13.6301C28.4392 13.6144 28.2724 13.6068 28.1094 13.6082C27.6092 13.6131 27.1072 13.6108 26.6053 13.6084L26.5929 13.6083C25.9551 13.6054 25.3172 13.6024 24.6823 13.6146C24.2217 13.6447 24.1212 14.0043 24.1468 14.4031C24.167 14.7179 24.1601 15.0431 24.1531 15.3703L24.153 15.3718C24.1396 15.9967 24.1261 16.629 24.3004 17.2106C24.5895 18.175 25.4711 18.9339 26.46 19.0793C26.5923 19.0988 26.7837 19.0538 26.8502 18.925C27.0774 18.4952 26.6765 18.3655 26.3275 18.2526L26.3275 18.2526C26.2265 18.2199 26.1298 18.1887 26.0539 18.1519C25.8479 18.0499 25.6598 17.9149 25.497 17.7523C24.9308 17.1874 24.9329 16.5083 24.9351 15.7918L24.9351 15.7917L24.9354 15.6759L24.9376 14.5046L27.1634 14.5021C27.246 14.5021 27.3372 14.5012 27.4339 14.5003C27.9098 14.4959 28.5192 14.4903 28.8886 14.5764C29.3809 14.6954 29.8356 14.9365 30.2106 15.2778C30.8593 15.8689 31.1339 16.6302 31.1736 17.4883L30.3558 17.4926C30.297 16.8798 30.1643 16.4101 29.7111 15.9578C29.4508 15.6969 29.1273 15.5084 28.7722 15.4108C28.4313 15.3186 27.9537 15.3244 27.5487 15.3294C27.4657 15.3304 27.3857 15.3313 27.3106 15.3314L25.757 15.3337C25.7565 15.4192 25.7542 15.5085 25.7518 15.6002L25.7518 15.6004C25.7331 16.3214 25.7107 17.1855 26.5423 17.4524C26.7881 17.5335 27.0492 17.5762 27.2624 17.7337C27.8092 18.1377 27.895 18.8974 27.5066 19.4371C26.8448 20.3571 25.4515 19.7537 24.7435 19.2178C23.9812 18.6342 23.4844 17.7686 23.3641 16.8147C23.3193 16.473 23.3248 16.0555 23.33 15.6623L23.33 15.6605C23.3323 15.4899 23.3345 15.3239 23.3325 15.1708C23.3392 15.0122 23.3345 14.8484 23.3297 14.6837L23.3297 14.6829C23.3223 14.4242 23.3148 14.1634 23.3513 13.9172C23.4511 13.2461 23.9884 12.8563 24.6131 12.7823C25.0041 12.7619 25.5195 12.7677 25.9925 12.773Z" />
  <path fill="#2B62CD"
    d="M21.6802 14.0521C21.9123 14.0344 22.1681 14.0354 22.4112 14.0364C22.4687 14.0366 22.5256 14.0368 22.5813 14.0368L22.5804 14.8648C22.4543 14.863 22.3284 14.8622 22.2024 14.8622C20.0541 14.8667 18.2161 16.071 17.4516 18.0982C17.1139 18.9935 17.1261 19.9208 17.1385 20.8577L17.1385 20.8579C17.1408 21.0316 17.1431 21.2056 17.1432 21.3798L17.1462 24.3854C17.3384 24.3946 17.5706 24.3912 17.7871 24.388C17.8694 24.3867 17.9495 24.3855 18.0242 24.3851C18.0369 23.4038 18.0324 22.3987 18.0279 21.4038C18.0261 21.0074 18.0244 20.6125 18.0237 20.2215C18.0215 18.9072 18.2678 17.8737 19.2431 16.9186C20.2394 15.9427 21.2575 15.7507 22.5809 15.759L22.5844 16.5069L22.5819 16.5375C22.5181 16.6076 21.8719 16.5816 21.6519 16.6139C20.326 16.7973 19.2481 17.7768 18.9365 19.0813C18.8294 19.5208 18.8386 20.2534 18.8458 20.8212L18.8458 20.8214C18.8474 20.9473 18.8489 21.065 18.849 21.1697L18.8519 23.9183C18.8527 25.2128 18.8022 25.2132 17.8143 25.2206C17.715 25.2214 17.6063 25.2222 17.4872 25.2244C16.2933 25.2465 16.3009 24.6509 16.312 23.7764L16.312 23.7761C16.3129 23.7056 16.3139 23.6334 16.3142 23.5595L16.3182 22.0095C16.3177 21.7653 16.3148 21.5268 16.312 21.2933C16.2883 19.354 16.2688 17.7583 17.6871 16.0802C18.6942 14.8966 20.1322 14.1663 21.6802 14.0521Z" />
  <path fill="#2B62CD"
    d="M23.0615 20.7871C23.1343 20.7805 23.2151 20.7806 23.2899 20.7807L23.3076 20.7807C24.1622 20.7844 24.9795 21.1319 25.576 21.7452C26.5343 22.7155 26.5256 23.7045 26.5151 24.884C26.5141 24.9947 26.5131 25.107 26.5129 25.2212C26.4146 25.2209 26.2911 25.2235 26.1535 25.2263L26.1355 25.2267C25.5996 25.2382 24.8592 25.254 24.5378 25.1348C23.6445 24.8035 24.3748 23.7271 23.4686 23.3528C22.7297 23.239 22.6521 23.7075 22.5704 24.2011L22.5704 24.2012C22.4981 24.638 22.4226 25.0943 21.883 25.1842C21.501 25.248 20.9722 25.2371 20.5046 25.2276L20.5019 25.2275C20.3401 25.2241 20.1856 25.2209 20.0471 25.221C20.0521 25.0163 20.0517 24.821 20.0512 24.6328L20.0512 24.6326C20.0489 23.6565 20.047 22.8694 20.8109 21.9363C21.3733 21.2493 22.1796 20.8647 23.0615 20.7871Z" />
  <path fill="#FEFEFE"
    d="M22.9788 21.629C23.0668 21.6219 23.1551 21.6173 23.2435 21.6152C24.3836 21.5999 25.3298 22.3426 25.6131 23.4486C25.6956 23.7706 25.6945 24.0308 25.693 24.3539L25.6928 24.386L25.6777 24.3861C25.3902 24.3889 25.1154 24.3915 24.8278 24.3801C24.7979 23.4921 24.5945 22.8147 23.6507 22.5546C22.8783 22.3589 22.1028 22.7829 21.8488 23.531C21.7484 23.8268 21.7497 24.0778 21.731 24.3842C21.5442 24.3944 21.3139 24.3915 21.1014 24.3888C21.0234 24.3878 20.9478 24.3868 20.8776 24.3865C20.8703 23.6934 20.9191 23.1966 21.3407 22.6037C21.7397 22.0424 22.3068 21.7374 22.9788 21.629Z" />
  <path fill="#2B62CD"
    d="M33.8741 19.3886L33.8835 19.3884C33.9743 19.3865 34.1068 19.3838 34.1758 19.4491C34.7454 19.9873 35.3189 20.549 35.8458 21.1287C36.0377 21.3272 35.8204 21.6931 35.5872 21.6884C35.3147 21.683 34.9488 21.231 34.7692 21.0442L33.1916 22.6539C33.2453 22.7171 33.3162 22.7852 33.3904 22.8566C33.6926 23.1469 34.052 23.4924 33.5521 23.7919C33.4703 23.7989 33.3241 23.7954 33.2604 23.7366C32.6923 23.2126 32.1418 22.654 31.6146 22.0875C31.4126 21.8703 31.5729 21.494 31.8424 21.4948C32.1189 21.4955 32.4794 21.9377 32.6707 22.1319L34.2473 20.537C34.192 20.4685 34.1144 20.394 34.0325 20.3155C33.7314 20.0267 33.3741 19.684 33.8741 19.3886Z" />
  <path fill="#2B62CD"
    d="M35.382 19.3703L35.3821 19.3704C35.4057 19.3963 35.4304 19.4236 35.4572 19.4521C35.4671 19.4455 35.4769 19.4387 35.4866 19.432L35.4867 19.4319C35.5906 19.3605 35.6871 19.2941 35.8288 19.3416C35.9666 19.4567 35.9174 19.6626 35.8921 19.7683L35.892 19.7685L35.8919 19.7689C35.884 19.8021 35.8785 19.8252 35.882 19.8325C35.931 19.934 36.0026 20.0068 36.0674 20.0728C36.2059 20.2136 36.3135 20.3231 36.1043 20.6147C35.7587 20.8218 35.4826 20.5072 35.2198 20.2078L35.2197 20.2077C35.1175 20.0911 35.0172 19.9769 34.9157 19.8966C34.6261 19.6676 34.4652 19.3682 34.8432 19.1104C35.1269 19.089 35.2259 19.1982 35.382 19.3703Z" />
  <path fill="#2B62CD"
    d="M32.2777 23.0416L32.2779 23.0419C32.37 23.1415 32.4567 23.2352 32.536 23.3032C32.8533 23.575 32.9738 24.0879 32.3915 24.1015C32.2073 24.0065 32.158 23.9145 32.0099 23.7776C31.9724 23.7357 31.9196 23.7676 31.8676 23.799L31.8676 23.799L31.8674 23.7991C31.8331 23.8198 31.7993 23.8402 31.7705 23.839C31.4508 23.8259 31.4167 23.5567 31.5803 23.3385C31.565 23.3231 31.5497 23.3076 31.5342 23.2921C31.2751 23.032 31.0112 22.7671 31.4722 22.4928C31.7572 22.4787 32.0363 22.7805 32.2777 23.0416Z" />
</svg>
